<?xml version="1.0" encoding="iso-8859-1"?>
<!-- Generator: Adobe Illustrator 19.0.0, SVG Export Plug-In . SVG Version: 6.00 Build 0)  -->
<svg version="1.1" id="Layer_1" xmlns="http://www.w3.org/2000/svg" xmlns:xlink="http://www.w3.org/1999/xlink" x="0px" y="0px"
	 viewBox="0 0 511.997 511.997" style="enable-background:new 0 0 511.997 511.997;" xml:space="preserve">
<g>
	<g>
		<path style="fill:#FFFFFF;" d="M511.996,120.656L391.342,0l-90.499,90.492l-7.531-7.539L30.173,346.093L0.001,376.265l135.733,135.732l30.172-30.172
			l263.139-263.13l-7.547-7.547L511.996,120.656z M391.342,30.165l57.203,57.203h-4.422c-2.719,0-5.453,1.047-7.531,3.125
			c-2.094,2.086-3.125,4.812-3.125,7.539v19.5h-19.5c-2.734,0-5.453,1.039-7.547,3.125c-2.078,2.086-3.125,4.82-3.125,7.547v19.492
			h-19.499c-2.719,0-5.453,1.047-7.531,3.125c-2.094,2.086-3.125,4.812-3.125,7.539v4.422l-57.203-57.203L391.342,30.165z
			 M135.734,481.825l-19.922-19.922c4.156-4.172,4.156-10.922,0-15.094c-4.172-4.156-10.922-4.156-15.094,0L85.64,431.731
			c4.172-4.156,4.172-10.922,0-15.078c-4.156-4.172-10.921-4.172-15.077,0l-15.078-15.078c4.156-4.172,4.156-10.922,0-15.094
			c-4.172-4.154-10.922-4.154-15.094,0l-10.219-10.217l15.078-15.094l105.577,105.576L135.734,481.825z M165.906,451.669
			L60.329,346.093l232.982-232.976l105.578,105.578L165.906,451.669z M394.467,184.109v-15.078h19.484
			c2.734,0,5.469-1.039,7.547-3.125c2.094-2.086,3.125-4.82,3.125-7.547v-19.492h19.5v-0.008c2.734,0,5.469-1.039,7.547-3.117
			c2.078-2.086,3.125-4.812,3.125-7.539v-19.5h15.077l11.953,11.953L406.42,196.07L394.467,184.109z"/>
	</g>
</g>
<g>
	<g>
		<path style="fill:#FFFFFF;" d="M304.327,182.874c-4.156-4.164-10.906-4.164-15.078,0L130.891,341.249c-4.172,4.156-4.172,10.906,0,15.078
			c4.156,4.156,10.922,4.156,15.078,0L304.327,197.96C308.499,193.796,308.499,187.038,304.327,182.874z"/>
	</g>
</g>
<g>
	<g>
		<path style="fill:#FFFFFF;" d="M304.327,243.202c-4.156-4.164-10.906-4.164-15.078,0l-98.03,98.047c-4.172,4.156-4.172,10.906,0,15.078
			c4.156,4.156,10.922,4.156,15.078,0l98.03-98.039C308.499,254.124,308.499,247.374,304.327,243.202z"/>
	</g>
</g>
<g>
</g>
<g>
</g>
<g>
</g>
<g>
</g>
<g>
</g>
<g>
</g>
<g>
</g>
<g>
</g>
<g>
</g>
<g>
</g>
<g>
</g>
<g>
</g>
<g>
</g>
<g>
</g>
<g>
</g>
</svg>
