<?xml version="1.0" encoding="iso-8859-1"?>
<!-- Generator: Adobe Illustrator 22.1.0, SVG Export Plug-In . SVG Version: 6.00 Build 0)  -->
<svg xmlns="http://www.w3.org/2000/svg" xmlns:xlink="http://www.w3.org/1999/xlink" version="1.1" id="Layer_1" x="0px" y="0px" viewBox="0 0 50 50" style="enable-background:new 0 0 50 50;" xml:space="preserve" width="50px" height="50px">
<g>
</g>
<g>
</g>
<path style="fill:#FFFFFF;" d="M41,4H9C6.243,4,4,6.243,4,9v32c0,2.757,2.243,5,5,5h32c2.757,0,5-2.243,5-5V9C46,6.243,43.757,4,41,4z M28,37H17l-3-22  l8-1.001L24,30c1.833-2.918,4-7.873,4-11c0-1.711-0.531-3.04-1-4l8-2c0.853,1.377,1,3.795,1,5.586C36,24.3,32.05,31.788,28,37z"/>
</svg>
